<svg fill="none" height="15" viewBox="0 0 15 15" width="15" xmlns="http://www.w3.org/2000/svg" xmlns:xlink="http://www.w3.org/1999/xlink"><clipPath id="a"><path d="m0 0h15v15h-15z"/></clipPath><g clip-path="url(#a)"><path d="m2.5 0c-1.38071 0-2.5 1.11929-2.5 2.5 0 1.20948.85888 2.21836 2 2.44999v5.10001c-1.14112.2316-2 1.2405-2 2.45 0 1.3807 1.11929 2.5 2.5 2.5s2.5-1.1193 2.5-2.5c0-1.2095-.85888-2.2184-2-2.45v-1.05h6.5c1.933 0 3.5-1.567 3.5-3.5v-.55001c1.1411-.23163 2-1.24051 2-2.44999 0-1.38071-1.1193-2.5-2.5-2.5s-2.5 1.11929-2.5 2.5c0 1.20948.8589 2.21836 2 2.44999v.55001c0 1.38071-1.1193 2.5-2.5 2.5h-6.5v-3.05001c1.14112-.23163 2-1.24051 2-2.44999 0-1.38071-1.11929-2.5-2.5-2.5z" fill="#000"/></g></svg>