<svg fill="none" height="12" viewBox="0 0 16 12" width="16" xmlns="http://www.w3.org/2000/svg"><g fill="#000"><path d="m16 6s-3-5.5-8-5.5-8 5.5-8 5.5 3 5.5 8 5.5 8-5.5 8-5.5zm-14.827 0c.48351-.73488 1.03964-1.41931 1.66-2.043 1.287-1.289 3.047-2.457 5.167-2.457s3.879 1.168 5.168 2.457c.6204.62369 1.1765 1.30812 1.66 2.043-.058.087-.122.183-.195.288-.335.48-.83 1.12-1.465 1.755-1.289 1.289-3.049 2.457-5.168 2.457-2.12 0-3.879-1.168-5.168-2.457-.62035-.62369-1.17548-1.30813-1.659-2.043z"/><path d="m8 3.5c-.66304 0-1.29893.26339-1.76777.73223s-.73223 1.10473-.73223 1.76777.26339 1.29893.73223 1.76777 1.10473.73223 1.76777.73223 1.29893-.26339 1.76777-.73223c.46883-.46884.73223-1.10473.73223-1.76777s-.2634-1.29893-.73223-1.76777c-.46884-.46884-1.10473-.73223-1.76777-.73223zm-3.5 2.5c0-.92826.36875-1.8185 1.02513-2.47487.65637-.65638 1.54661-1.02513 2.47487-1.02513s1.8185.36875 2.4749 1.02513c.6564.65637 1.0251 1.54661 1.0251 2.47487s-.3687 1.8185-1.0251 2.47487c-.6564.65638-1.54664 1.02513-2.4749 1.02513s-1.8185-.36875-2.47487-1.02513c-.65638-.65637-1.02513-1.54661-1.02513-2.47487z"/></g></svg>