<svg fill="none" height="19" viewBox="0 0 23 19" width="23" xmlns="http://www.w3.org/2000/svg"><path d="m9.20084 12.2572h3.07816v2.7276h-3.07816zm3.07816-8.14919h-3.07816v6.80219h3.07816zm2.2991 2.0373-1.5202 1.34707 3.8194 3.38442 6.1227-6.11567-1.5202-1.34707-4.6025 4.76856zm-3.8571 11.12909c-4.81186 0-8.74012-3.4808-8.74012-7.74471 0-4.26387 3.92826-7.74102 8.74012-7.74102 2.7934 0 5.2726 1.19121 6.9017 2.97988l1.4155-1.258c-1.9473-2.13008-4.9543-3.51055-8.3172-3.51055-5.90909 0-10.721 4.26387-10.721 9.5 0 5.2361 4.81191 9.5 10.721 9.5 5.9092 0 10.7546-4.2342 10.7546-9.47031l-2.3369 2.07071c-1.0218 3.2619-4.3847 5.674-8.4177 5.674z" fill="#333"/></svg>