<svg fill="none" height="24" viewBox="0 0 24 24" width="24" xmlns="http://www.w3.org/2000/svg" xmlns:xlink="http://www.w3.org/1999/xlink"><clipPath id="a"><path d="m0 0h24v24h-24z"/></clipPath><g clip-path="url(#a)"><path d="m20.003 0h-16.00602c-2.20396 0-3.99698 1.79302-3.99698 3.99698v16.00602c0 2.204 1.79302 3.997 3.99698 3.997h16.00602c2.204 0 3.997-1.793 3.997-3.997v-16.00602c0-2.20396-1.793-3.99698-3.997-3.99698zm-12.296 12.293c.18698.187.29302.442.29302.707v1.995c.51801.042.95901.476.95901 1.001 0 .552-.40598 1.0041-.95901 1.0041-1.17802-.0001-2.00002-.8221-2.00002-2.0001v-1.586l-.70702-.707c-.39098-.391-.39098-1.023 0-1.414l.70702-.707v-1.586c0-1.17802.822-2.00002 2.00002-2.00002.55298 0 .99998.44799.99998.99999 0 .54998-.44302.996-.99202.99998l-.00801 2.00005c0 .265-.10599.52-.29302.707l-.29297.293zm6.263-4.04998-2 7.99998c-.114.454-.521.757-.969.757-.08 0-.162-.009-.243-.03-.536-.134-.86302-.677-.728-1.213l2-8.00003c.133-.53499.674-.86302 1.212-.72699.536.13402.862.67702.728 1.21304zm4.737 4.46398-.707.707v1.586c0 1.178-.822 2-2 2-.553 0-1-.448-1-1 0-.55.443-.996.992-1l.008-2c0-.265.105-.52.293-.707l.2931-.293-.2931-.293c-.188-.187-.293-.442-.293-.707v-1.99503c-.518-.042-.959-.47602-.959-1.00102 0-.552.406-1.00401.959-1.00401 1.178.00004 2 .82204 2 2.00006v1.586l.707.707c.391.391.391 1.023 0 1.414z" fill="#000"/></g></svg>